<svg width="24" height="24" viewBox="0 0 166 166" fill="none" xmlns="http://www.w3.org/2000/svg">
<path d="M109.245 121.796L109.244 121.796L84.4556 97.0077L84.4517 97.0038C84.3092 96.8608 84.0426 96.7258 83.6759 96.726C83.3085 96.7262 83.0376 96.8623 82.8922 97.0077L58.0132 121.887L58.0124 121.887C53.5717 126.325 47.8778 129.08 41.7345 129.818L67.355 155.439C75.7933 163.877 89.4744 163.877 97.9127 155.439L123.873 129.479C118.363 128.479 113.285 125.835 109.245 121.796Z" stroke="#F4B130" stroke-width="7"/>
<path d="M58.0122 43.3809L58.0128 43.3815L82.8915 68.2642C82.8916 68.2642 82.8917 68.2643 82.8917 68.2643C83.3214 68.6938 84.0281 68.6907 84.452 68.2656L84.4556 68.2619L109.244 43.4716L109.244 43.4708C113.285 39.4326 118.362 36.7882 123.872 35.788L97.9127 9.82875C89.4744 1.39045 75.7935 1.39045 67.3552 9.82875L41.7354 35.4485C47.8787 36.1872 53.5723 38.9426 58.0122 43.3809Z" stroke="#F4B130" stroke-width="7"/>
<path d="M155.439 67.3555L155.439 67.3554L137.709 49.6247C137.652 49.6261 137.594 49.6268 137.537 49.6268H128.887C125.342 49.6268 121.855 51.0717 119.352 53.5764L119.351 53.5774L94.5627 78.3657C94.5625 78.3659 94.5624 78.366 94.5622 78.3661C92.1714 80.7576 89.18 82.1973 86.0748 82.6848C89.2171 83.1568 92.2245 84.5631 94.5637 86.9052L119.351 111.689L119.352 111.691C121.855 114.196 125.342 115.641 128.887 115.641H137.537C137.594 115.641 137.652 115.641 137.709 115.643L155.439 97.913C155.439 97.913 155.439 97.9129 155.439 97.9129C163.878 89.4736 163.877 75.7928 155.439 67.3555ZM72.7861 86.9003C75.1258 84.5627 78.1333 83.1571 81.2756 82.685C78.1695 82.1977 75.1797 80.7584 72.7886 78.3697L72.7874 78.3685L47.9061 53.4872L47.9055 53.4866C45.4015 50.9814 41.915 49.5367 38.3705 49.5367H27.7337C27.705 49.5367 27.6764 49.5365 27.648 49.5361L9.82873 67.3554L9.82863 67.3555C1.3906 75.7928 1.39028 89.4737 9.82873 97.9129C9.82876 97.913 9.82879 97.913 9.82882 97.913L27.6472 115.731C27.6759 115.731 27.7047 115.731 27.7337 115.731H38.3705C41.915 115.731 45.4015 114.286 47.9055 111.781L47.9061 111.78L72.785 86.9014L72.7861 86.9003Z" stroke="#F4B130" stroke-width="7"/>
</svg>
